# xmcd CD database file
#
# Track frame offsets:
#	150
#	22457
#	42600
#	60980
#	77820
#	91230
#	110027
#	129382
#	151650
#	171867
#	189162
#	207830
#	226622
#	245487
#	263177
#
# Disc length: 3763 seconds
#
# Revision: 0
# Processed by: cddbd v1.5.1PL2 Copyright (c) Steve Scherf et al.
# Submitted via: CDex 1.51
#
DISCID=c10eb10f
DTITLE=Various Artist - Nutty Professor II (The Klumps)
DYEAR=1900
DGENRE=General Soundtrack
TTITLE0=Janet Jackson - Doesn't Really Matter
TTITLE1=Jay-Z Featuring Memphis Bleek and Amil - Hey Papi
TTITLE2=Musiq - Just Friends (Sunny)
TTITLE3=Jayo Felony - Hotta Than Fish Grease
TTITLE4=Method Man - Even If...
TTITLE5=DMX Featuring Dyme - I'm Gonna Crawl
TTITLE6=Brian McKnight - Thinkin' Bout Me
TTITLE7=Dru Hill Presents Jazz - Here With Me
TTITLE8=Kandice Love - No You Didn't Say
TTITLE9=Eve - Let Me Be
TTITLE10=Shorty 101 - Get With Me
TTITLE11=Montell Jordan - Do You Remember (Once Upon A Time)
TTITLE12=Sisqo Featuring Foxy Brown - Thong Song (Uncensored)
TTITLE13=Redman and Eminem - Off The Wall
TTITLE14=R. Kelly - Just A Touch
EXTD=
EXTT0=
EXTT1=
EXTT2=
EXTT3=
EXTT4=
EXTT5=
EXTT6=
EXTT7=
EXTT8=
EXTT9=
EXTT10=
EXTT11=
EXTT12=
EXTT13=
EXTT14=
PLAYORDER=
